<?xml version="1.0" encoding="UTF-8"?>
<svg xmlns="http://www.w3.org/2000/svg" xmlns:xlink="http://www.w3.org/1999/xlink" width="100px" height="100px" viewBox="0 0 100 100" version="1.1">
<g id="surface1">
<path style=" stroke:none;fill-rule:nonzero;fill:rgb(24.705882%,31.764706%,70.980392%);fill-opacity:1;" d="M 87.5 77.082031 C 87.5 82.835938 82.835938 87.5 77.082031 87.5 L 22.917969 87.5 C 17.164062 87.5 12.5 82.835938 12.5 77.082031 L 12.5 22.917969 C 12.5 17.164062 17.164062 12.5 22.917969 12.5 L 77.082031 12.5 C 82.835938 12.5 87.5 17.164062 87.5 22.917969 Z M 87.5 77.082031 "/>
<path style=" stroke:none;fill-rule:nonzero;fill:rgb(100%,100%,100%);fill-opacity:1;" d="M 71.601562 52.082031 L 64.582031 52.082031 L 64.582031 79.167969 L 54.167969 79.167969 L 54.167969 52.082031 L 47.917969 52.082031 L 47.917969 43.75 L 54.167969 43.75 L 54.167969 38.730469 C 54.171875 31.421875 57.207031 27.082031 65.816406 27.082031 L 72.917969 27.082031 L 72.917969 35.417969 L 68.152344 35.417969 C 64.800781 35.417969 64.582031 36.667969 64.582031 39.007812 L 64.582031 43.75 L 72.917969 43.75 Z M 71.601562 52.082031 "/>
</g>
</svg>
